<svg width="112" height="112" viewBox="0 0 112 112" fill="none" xmlns="http://www.w3.org/2000/svg">
	<path d="M55.9999 80.5C55.2558 80.4982 54.5317 80.2594 53.9326 79.8181C53.3334 79.3768 52.8905 78.7561 52.6682 78.046C52.4458 77.336 52.4555 76.5735 52.6958 75.8693C52.9362 75.1651 53.3948 74.5559 54.0049 74.13C54.2499 74.13 78.8199 56.91 89.0049 49.63C100.065 41.72 94.5349 30.765 91.6299 26.425C90.8059 25.2865 89.7618 24.3251 88.5594 23.5977C87.357 22.8702 86.0207 22.3915 84.6299 22.19C83.0079 22.0321 81.3709 22.2325 79.8348 22.7768C78.2986 23.3211 76.9007 24.1961 75.7399 25.34C74.8028 26.075 74.0405 27.0088 73.5079 28.074C72.9753 29.1392 72.6857 30.3093 72.6599 31.5C72.7137 34.548 73.8988 37.4671 75.9849 39.69C76.7341 39.9844 77.5488 40.0715 78.3433 39.9422C79.1378 39.8128 79.8828 39.4718 80.4999 38.955C81.4099 38.29 81.5499 37.695 80.9899 36.54C80.6103 35.7134 80.5673 34.7715 80.8701 33.9138C81.1729 33.0562 81.7977 32.35 82.6122 31.9451C83.4267 31.5401 84.3668 31.4681 85.2334 31.7444C86.1 32.0206 86.8251 32.6234 87.2549 33.425C88.3126 35.2816 88.6262 37.4704 88.1325 39.5493C87.6387 41.6282 86.3744 43.4422 84.5949 44.625C82.668 46.1065 80.3055 46.9097 77.8749 46.9097C75.4443 46.9097 73.0818 46.1065 71.1549 44.625C67.6113 41.0381 65.6351 36.192 65.6599 31.15C65.7247 29.0456 66.2283 26.978 67.1384 25.0795C68.0484 23.181 69.345 21.4934 70.9449 20.125C72.8386 18.2974 75.1144 16.913 77.6081 16.0717C80.1018 15.2304 82.7511 14.9531 85.3649 15.26C87.7663 15.5743 90.0763 16.3836 92.1488 17.6367C94.2212 18.8898 96.011 20.5595 97.4049 22.54C103.88 32.27 106.12 45.955 93.0299 55.335C82.8449 62.615 58.2399 79.835 58.0299 79.835C57.4391 80.2628 56.7294 80.4953 55.9999 80.5Z" fill="#F7941D" />
	<path d="M63.0001 86.52C61.1993 79.1068 57.387 72.3346 51.9834 66.9495C46.5798 61.5643 39.7945 57.7754 32.3751 56C31.5801 55.7934 30.7377 55.8731 29.9954 56.225C29.2532 56.5769 28.6584 57.1787 28.3151 57.925L7.31512 103.425C7.0293 104.049 6.93341 104.744 7.03938 105.422C7.14535 106.101 7.4485 106.733 7.91109 107.24C8.37369 107.748 8.9753 108.108 9.64102 108.276C10.3067 108.444 11.0072 108.412 11.6551 108.185L60.6551 90.685C61.5012 90.4174 62.214 89.8384 62.6493 89.0651C63.0846 88.2919 63.21 87.3822 63.0001 86.52Z" fill="#702C8D" />
	<path d="M20.6151 74.725L7.31512 103.53C7.0293 104.154 6.93341 104.849 7.03938 105.527C7.14535 106.206 7.4485 106.838 7.91109 107.345C8.37369 107.853 8.9753 108.213 9.64102 108.381C10.3067 108.549 11.0072 108.517 11.6551 108.29L40.7401 97.79C39.7071 92.5165 37.3031 87.6082 33.7702 83.5592C30.2372 79.5101 25.7 76.4632 20.6151 74.725Z" fill="#EC008C" />
	<path d="M41.4399 54.11C40.8681 54.1106 40.3049 53.971 39.7995 53.7036C39.294 53.4361 38.8619 53.0489 38.5407 52.5758C38.2196 52.1027 38.0192 51.5581 37.9572 50.9897C37.8952 50.4212 37.9733 49.8462 38.1849 49.315C38.8396 47.9104 39.8687 46.7132 41.1591 45.855C42.4495 44.9968 43.9514 44.5107 45.4999 44.45C46.1506 44.3554 46.7939 44.215 47.4249 44.03C47.0658 43.4777 46.6681 42.9514 46.2349 42.455C45.085 41.4066 44.2475 40.0605 43.8151 38.5656C43.3827 37.0708 43.3723 35.4854 43.7849 33.985C44.4417 32.5676 45.4808 31.3614 46.7854 30.502C48.0899 29.6426 49.6083 29.164 51.1699 29.12C51.9009 29.0358 52.6183 28.8594 53.3049 28.595C53.6415 27.7502 54.2936 27.0695 55.1233 26.6971C55.953 26.3247 56.895 26.2899 57.7499 26.6C58.1849 26.7661 58.5825 27.0174 58.9192 27.339C59.2559 27.6607 59.525 28.0463 59.7108 28.4733C59.8966 28.9003 59.9953 29.3601 60.0012 29.8257C60.007 30.2914 59.9199 30.7535 59.7449 31.185C59.0939 32.5753 58.0744 33.7605 56.7971 34.6121C55.5198 35.4636 54.0336 35.9488 52.4999 36.015C51.8608 36.1103 51.2292 36.2507 50.6099 36.435C50.9578 36.9863 51.3437 37.5125 51.7649 38.01C52.9148 39.0584 53.7523 40.4046 54.1847 41.8994C54.6171 43.3943 54.6276 44.9796 54.2149 46.48C53.5548 47.895 52.515 49.099 51.2111 49.9579C49.9072 50.8169 48.3905 51.297 46.8299 51.345C46.099 51.4296 45.3817 51.6059 44.6949 51.87C44.4411 52.5278 43.9945 53.0936 43.4137 53.4933C42.8329 53.893 42.145 54.1079 41.4399 54.11Z" fill="#F7941D" />
	<path d="M83.8251 87.185C81.506 86.9798 79.3294 85.9781 77.6651 84.35C77.1154 83.8531 76.5037 83.4296 75.8451 83.09C74.9858 83.3857 74.0452 83.3355 73.2221 82.9502C72.3991 82.5648 71.7583 81.8744 71.4351 81.025C71.2728 80.5931 71.1975 80.1333 71.2135 79.6722C71.2295 79.211 71.3366 78.7576 71.5285 78.338C71.7204 77.9184 71.9934 77.5408 72.3318 77.2271C72.6702 76.9134 73.0672 76.6697 73.5001 76.51C74.9992 76.082 76.5877 76.0778 78.089 76.4979C79.5904 76.9181 80.9459 77.7461 82.0051 78.89C82.5021 79.3119 83.0284 79.6978 83.5801 80.045C83.7662 79.4143 83.9066 78.7709 84.0001 78.12C84.0353 76.5608 84.502 75.0419 85.3485 73.7321C86.195 72.4222 87.3881 71.3726 88.7951 70.7C90.2971 70.2721 91.8887 70.2714 93.3911 70.698C94.8934 71.1246 96.2471 71.9616 97.3001 73.115C97.8508 73.6107 98.4624 74.0341 99.1201 74.375C99.975 74.0774 100.912 74.1226 101.734 74.5011C102.557 74.8796 103.2 75.562 103.53 76.405C103.704 76.8387 103.79 77.3029 103.781 77.7702C103.773 78.2375 103.672 78.6984 103.482 79.1258C103.293 79.5531 103.02 79.9382 102.68 80.2584C102.339 80.5786 101.938 80.8274 101.5 80.99C99.9981 81.4179 98.4066 81.4186 96.9042 80.992C95.4018 80.5654 94.0481 79.7284 92.9951 78.575C92.4977 78.1538 91.9714 77.7679 91.4201 77.42C91.2343 78.0508 91.0939 78.6941 91.0001 79.345C90.965 80.9042 90.4982 82.4231 89.6517 83.733C88.8053 85.0428 87.6122 86.0924 86.2051 86.765C85.4443 87.05 84.6375 87.1924 83.8251 87.185ZM32.0601 38.745C31.1319 38.745 30.2416 38.3763 29.5853 37.7199C28.9289 37.0635 28.5601 36.1733 28.5601 35.245C28.6398 33.7011 29.1422 32.2088 30.0126 30.9311C30.8829 29.6534 32.0876 28.6394 33.4951 28C34.0223 27.6495 34.5252 27.2636 35.0001 26.845C34.464 26.4791 33.9026 26.1516 33.3201 25.865C31.8297 25.3371 30.5176 24.4009 29.5336 23.1632C28.5497 21.9255 27.9334 20.4361 27.7551 18.865C27.8087 17.3057 28.2955 15.7921 29.161 14.4939C30.0264 13.1957 31.2364 12.1642 32.6551 11.515C33.2925 11.1476 33.8805 10.7007 34.4051 10.185C34.4035 9.29202 34.7433 8.43218 35.3549 7.78152C35.9665 7.13086 36.8037 6.73859 37.6951 6.68501C38.6234 6.68501 39.5136 7.05376 40.17 7.71014C40.8264 8.36652 41.1951 9.25676 41.1951 10.185C41.1545 11.716 40.6961 13.2068 39.8695 14.4961C39.0428 15.7854 37.8795 16.8241 36.5051 17.5C35.955 17.8366 35.4287 18.2108 34.9301 18.62C35.4662 18.986 36.0276 19.3135 36.6101 19.6C38.1006 20.1279 39.4126 21.0641 40.3966 22.3019C41.3806 23.5396 41.9969 25.0289 42.1751 26.6C42.1176 28.1584 41.6292 29.6702 40.7642 30.9677C39.8992 32.2652 38.6915 33.2976 37.2751 33.95C36.6374 34.3168 36.0492 34.7637 35.5251 35.28C35.5267 36.173 35.187 37.0328 34.5753 37.6835C33.9637 38.3342 33.1265 38.7264 32.2351 38.78L32.0601 38.745Z" fill="#00A8DE" />
	<path d="M94.5 101.5C96.433 101.5 98 99.933 98 98C98 96.067 96.433 94.5 94.5 94.5C92.567 94.5 91 96.067 91 98C91 99.933 92.567 101.5 94.5 101.5Z" fill="#FFC60B" />
	<path d="M66.5 56C68.433 56 70 54.433 70 52.5C70 50.567 68.433 49 66.5 49C64.567 49 63 50.567 63 52.5C63 54.433 64.567 56 66.5 56Z" fill="#FFC60B" />
	<path d="M63 14C64.933 14 66.5 12.433 66.5 10.5C66.5 8.567 64.933 7 63 7C61.067 7 59.5 8.567 59.5 10.5C59.5 12.433 61.067 14 63 14Z" fill="#FFC60B" />
	<path d="M21 45.5C22.933 45.5 24.5 43.933 24.5 42C24.5 40.067 22.933 38.5 21 38.5C19.067 38.5 17.5 40.067 17.5 42C17.5 43.933 19.067 45.5 21 45.5Z" fill="#FFC60B" />
</svg>
