<?xml version="1.0" encoding="UTF-8"?>
<svg xmlns="http://www.w3.org/2000/svg" xmlns:xlink="http://www.w3.org/1999/xlink" width="375pt" height="374.999991pt" viewBox="0 0 375 374.999991" version="1.2">
<defs>
<clipPath id="clip1">
  <path d="M 24.761719 11.804688 L 350.261719 11.804688 L 350.261719 363.554688 L 24.761719 363.554688 Z M 24.761719 11.804688 "/>
</clipPath>
</defs>
<g id="surface1">
<g clip-path="url(#clip1)" clip-rule="nonzero">
<path style=" stroke:none;fill-rule:nonzero;fill:rgb(54.899597%,61.959839%,100%);fill-opacity:1;" d="M 350.082031 363.917969 L 271.003906 302.289062 L 279.789062 328.707031 L 68.910156 328.707031 C 44.652344 328.707031 24.980469 309.007812 24.980469 284.691406 L 24.980469 55.820312 C 24.980469 31.503906 44.652344 11.804688 68.910156 11.804688 L 306.148438 11.804688 C 330.417969 11.804688 350.082031 31.503906 350.082031 55.820312 Z M 350.082031 363.917969 "/>
</g>
<path style=" stroke:none;fill-rule:nonzero;fill:rgb(100%,100%,100%);fill-opacity:1;" d="M 267.398438 110.75 C 267.398438 110.75 244.554688 93.054688 217.492188 91.03125 L 215.121094 95.871094 C 239.546875 101.769531 250.707031 110.308594 262.390625 120.785156 C 242.269531 110.484375 222.324219 99.832031 187.53125 99.832031 C 152.734375 99.832031 132.789062 110.484375 112.667969 120.785156 C 124.355469 110.308594 137.710938 100.800781 159.941406 95.871094 L 157.566406 91.03125 C 129.1875 93.757812 107.660156 110.75 107.660156 110.75 C 107.660156 110.75 82.089844 147.632812 77.699219 219.726562 C 103.53125 249.304688 142.628906 249.480469 142.628906 249.480469 L 150.714844 238.652344 C 136.917969 233.902344 121.191406 225.363281 107.660156 209.867188 C 123.828125 222.015625 148.167969 231.875 187.53125 231.875 C 226.894531 231.875 251.234375 222.015625 267.398438 209.867188 C 253.867188 225.363281 238.140625 233.902344 224.347656 238.652344 L 232.429688 249.480469 C 232.429688 249.480469 271.53125 249.304688 297.363281 219.726562 C 292.96875 147.632812 267.398438 110.75 267.398438 110.75 Z M 156.777344 205.46875 C 147.113281 205.46875 139.203125 195.609375 139.203125 183.460938 C 139.203125 171.3125 147.113281 161.453125 156.777344 161.453125 C 166.441406 161.453125 174.351562 171.3125 174.351562 183.460938 C 174.351562 195.609375 166.441406 205.46875 156.777344 205.46875 Z M 218.28125 205.46875 C 208.617188 205.46875 200.710938 195.609375 200.710938 183.460938 C 200.710938 171.3125 208.617188 161.453125 218.28125 161.453125 C 227.949219 161.453125 235.855469 171.3125 235.855469 183.460938 C 235.855469 195.609375 227.949219 205.46875 218.28125 205.46875 Z M 218.28125 205.46875 "/>
</g>
</svg>
