<?xml version="1.0" encoding="utf-8"?>
<!-- Generator: Adobe Illustrator 24.1.2, SVG Export Plug-In . SVG Version: 6.00 Build 0)  -->
<svg version="1.1" id="Layer_1" xmlns="http://www.w3.org/2000/svg" xmlns:xlink="http://www.w3.org/1999/xlink" x="0px" y="0px"
	 viewBox="0 0 21.19 4.74" style="enable-background:new 0 0 21.19 4.74;" xml:space="preserve">
<style type="text/css">
	.st0{fill:#FFFFFF;}
	.st1{fill:#8247E5;}
</style>
<g>
	<g>
		<path class="st0" d="M8.29,1.51C8.42,1.59,8.53,1.7,8.6,1.85C8.68,2,8.72,2.18,8.72,2.38c0,0.2-0.04,0.37-0.13,0.52
			c-0.08,0.15-0.2,0.26-0.35,0.33C8.09,3.31,7.91,3.35,7.72,3.35c-0.11,0-0.21-0.02-0.31-0.06C7.31,3.26,7.22,3.2,7.15,3.13v1.04
			H6.57V1.43h0.5l0.05,0.22c0.22-0.18,0.46-0.27,0.71-0.27C8,1.38,8.16,1.42,8.29,1.51z M7.97,2.75c0.1-0.09,0.15-0.21,0.15-0.36
			c0-0.15-0.05-0.27-0.14-0.37c-0.09-0.1-0.21-0.14-0.34-0.14c-0.11,0-0.21,0.02-0.29,0.07C7.27,1.99,7.21,2.06,7.16,2.15V2.6
			c0.03,0.09,0.09,0.16,0.16,0.21C7.4,2.86,7.49,2.89,7.6,2.89C7.75,2.89,7.87,2.84,7.97,2.75z"/>
		<path class="st0" d="M9.06,1.86C9.15,1.72,9.27,1.6,9.43,1.52c0.16-0.08,0.34-0.13,0.54-0.13c0.2,0,0.38,0.04,0.54,0.13
			c0.15,0.08,0.27,0.2,0.36,0.35S11,2.18,11,2.37s-0.04,0.35-0.13,0.5s-0.2,0.27-0.36,0.35c-0.15,0.08-0.34,0.13-0.54,0.13
			c-0.2,0-0.38-0.04-0.54-0.12C9.27,3.15,9.15,3.04,9.06,2.89C8.98,2.74,8.93,2.57,8.93,2.37C8.93,2.18,8.98,2.01,9.06,1.86z
			 M9.65,2.73c0.08,0.1,0.19,0.14,0.32,0.14c0.13,0,0.24-0.05,0.32-0.14c0.08-0.09,0.12-0.22,0.12-0.36c0-0.15-0.04-0.27-0.12-0.36
			C10.2,1.91,10.1,1.86,9.96,1.86c-0.13,0-0.23,0.05-0.32,0.14C9.56,2.1,9.52,2.22,9.52,2.37C9.52,2.51,9.56,2.63,9.65,2.73z"/>
		<path class="st0" d="M11.94,0.01V3.3h-0.58V0.01H11.94z"/>
		<path class="st0" d="M14.32,1.48l-1.18,2.7h-0.56l0.44-0.97l-0.84-1.73h0.66l0.48,1.08l0.48-1.08H14.32z"/>
		<path class="st0" d="M16.54,1.48V3.3c0,0.17-0.05,0.33-0.15,0.47c-0.1,0.14-0.23,0.25-0.4,0.33c-0.17,0.08-0.35,0.12-0.55,0.12
			c-0.15,0-0.28-0.02-0.39-0.05c-0.11-0.04-0.2-0.08-0.27-0.12C14.7,4,14.62,3.94,14.53,3.86l0.34-0.4
			c0.08,0.08,0.17,0.14,0.25,0.18c0.08,0.04,0.19,0.07,0.31,0.07c0.15,0,0.27-0.04,0.37-0.11c0.1-0.07,0.15-0.18,0.15-0.31V3.03
			c-0.06,0.09-0.14,0.17-0.26,0.23c-0.12,0.06-0.26,0.09-0.42,0.09c-0.16,0-0.32-0.04-0.46-0.13c-0.14-0.08-0.25-0.2-0.34-0.35
			c-0.08-0.15-0.13-0.31-0.13-0.49c0-0.18,0.04-0.35,0.13-0.5c0.09-0.15,0.2-0.27,0.35-0.36c0.14-0.09,0.29-0.13,0.45-0.13
			c0.15,0,0.28,0.02,0.4,0.06c0.12,0.04,0.21,0.1,0.27,0.17L16,1.48H16.54z M15.95,2.6V2.15c-0.04-0.09-0.1-0.16-0.19-0.21
			c-0.09-0.05-0.19-0.08-0.31-0.08c-0.14,0-0.26,0.05-0.36,0.14c-0.1,0.09-0.15,0.21-0.15,0.36c0,0.14,0.05,0.27,0.15,0.37
			c0.1,0.1,0.22,0.15,0.36,0.15C15.68,2.87,15.85,2.78,15.95,2.6z"/>
		<path class="st0" d="M17.02,1.86c0.09-0.15,0.21-0.26,0.37-0.35c0.16-0.08,0.34-0.13,0.54-0.13s0.38,0.04,0.54,0.13
			c0.15,0.08,0.27,0.2,0.36,0.35c0.08,0.15,0.13,0.31,0.13,0.5s-0.04,0.35-0.13,0.5c-0.08,0.15-0.2,0.27-0.36,0.35
			c-0.15,0.08-0.34,0.13-0.54,0.13c-0.2,0-0.38-0.04-0.54-0.12c-0.16-0.08-0.28-0.19-0.37-0.34c-0.09-0.15-0.13-0.32-0.13-0.53
			C16.89,2.18,16.93,2.01,17.02,1.86z M17.6,2.73c0.08,0.1,0.19,0.14,0.32,0.14c0.13,0,0.24-0.05,0.32-0.14
			c0.08-0.09,0.12-0.22,0.12-0.36c0-0.15-0.04-0.27-0.12-0.36c-0.08-0.09-0.19-0.14-0.32-0.14c-0.13,0-0.23,0.05-0.32,0.14
			s-0.13,0.22-0.13,0.36C17.48,2.51,17.52,2.63,17.6,2.73z"/>
		<path class="st0" d="M21.01,1.54c0.12,0.1,0.17,0.23,0.18,0.39V3.3H20.6V2.15c-0.01-0.18-0.1-0.27-0.27-0.27
			c-0.13,0-0.24,0.06-0.32,0.19c-0.08,0.13-0.12,0.29-0.12,0.48V3.3h-0.58V1.48h0.53l0.04,0.29c0.07-0.12,0.16-0.21,0.28-0.28
			c0.12-0.07,0.26-0.1,0.42-0.1C20.75,1.39,20.9,1.44,21.01,1.54z"/>
	</g>
	<path class="st1" d="M4.09,1.45c-0.1-0.06-0.23-0.06-0.34,0L2.97,1.91L2.44,2.21L1.66,2.67c-0.1,0.06-0.23,0.06-0.34,0L0.7,2.31
		C0.6,2.25,0.53,2.14,0.53,2.02V1.31c0-0.12,0.06-0.23,0.17-0.29l0.61-0.35c0.1-0.06,0.23-0.06,0.34,0l0.61,0.35
		c0.1,0.06,0.17,0.17,0.17,0.29v0.46l0.53-0.31V1c0-0.12-0.06-0.23-0.17-0.29L1.66,0.05c-0.1-0.06-0.23-0.06-0.34,0L0.17,0.71
		C0.06,0.77,0,0.88,0,1v1.33c0,0.12,0.06,0.23,0.17,0.29l1.15,0.66c0.1,0.06,0.23,0.06,0.34,0l0.78-0.45l0.53-0.31l0.78-0.45
		c0.1-0.06,0.23-0.06,0.34,0l0.61,0.35c0.1,0.06,0.17,0.17,0.17,0.29v0.71c0,0.12-0.06,0.23-0.17,0.29L4.09,4.07
		c-0.1,0.06-0.23,0.06-0.34,0L3.14,3.72c-0.1-0.06-0.17-0.17-0.17-0.29V2.97L2.44,3.28v0.46c0,0.12,0.06,0.23,0.17,0.29l1.15,0.66
		c0.1,0.06,0.23,0.06,0.34,0l1.15-0.66c0.1-0.06,0.17-0.17,0.17-0.29V2.41c0-0.12-0.06-0.23-0.17-0.29L4.09,1.45z"/>
</g>
</svg>
