<?xml version="1.0" encoding="UTF-8"?>
<svg xmlns="http://www.w3.org/2000/svg" xmlns:xlink="http://www.w3.org/1999/xlink" width="546pt" height="120pt" viewBox="0 0 546 120" version="1.1">
	<defs>
		<clipPath id="clip1">
			<path d="M 496 35 L 544.613281 35 L 544.613281 84 L 496 84 Z M 496 35 " />
		</clipPath>
		<clipPath id="clip2">
			<path d="M 0 0 L 140 0 L 140 119.816406 L 0 119.816406 Z M 0 0 " />
		</clipPath>
	</defs>
	<g id="surface1">
		<path style=" stroke:none;fill-rule:nonzero;fill:rgb(2.352941%,6.27451%,14.117647%);fill-opacity:1;" d="M 213.0625 38.167969 C 216.40625 40.1875 219.234375 42.96875 221.03125 46.761719 C 223.089844 50.554688 224.117188 55.101562 224.117188 60.15625 C 224.117188 65.214844 223.089844 69.511719 220.777344 73.300781 C 218.71875 77.09375 215.632812 79.875 211.78125 81.644531 C 207.925781 83.667969 203.296875 84.675781 198.414062 84.675781 C 195.585938 84.675781 193.019531 84.171875 190.449219 83.160156 C 187.878906 82.402344 185.5625 80.886719 183.765625 79.117188 L 183.765625 105.40625 L 168.859375 105.40625 L 168.859375 36.144531 L 181.710938 36.144531 L 182.996094 41.707031 C 188.648438 37.15625 194.816406 34.878906 201.242188 34.878906 C 205.613281 34.878906 209.722656 35.890625 213.0625 38.167969 Z M 204.839844 69.511719 C 207.410156 67.234375 208.695312 64.203125 208.695312 60.410156 C 208.695312 56.621094 207.410156 53.585938 205.097656 51.058594 C 202.785156 48.53125 199.699219 47.519531 196.359375 47.519531 C 193.53125 47.519531 190.960938 48.023438 188.90625 49.289062 C 186.847656 50.300781 185.308594 52.070312 184.023438 54.34375 L 184.023438 65.71875 C 184.792969 67.996094 186.335938 69.761719 188.132812 71.027344 C 190.191406 72.292969 192.503906 73.050781 195.332031 73.050781 C 199.1875 73.050781 202.269531 71.785156 204.839844 69.511719 Z M 204.839844 69.511719 " />
		<path style=" stroke:none;fill-rule:nonzero;fill:rgb(2.352941%,6.27451%,14.117647%);fill-opacity:1;" d="M 232.855469 47.007812 C 235.167969 43.46875 238.253906 40.4375 242.363281 38.414062 C 246.476562 36.390625 251.101562 35.128906 256.242188 35.128906 C 261.382812 35.128906 266.011719 36.140625 270.121094 38.414062 C 273.976562 40.4375 277.0625 43.46875 279.375 47.261719 C 281.6875 51.050781 282.714844 55.097656 282.714844 59.898438 C 282.714844 64.703125 281.6875 68.746094 279.375 72.539062 C 277.0625 76.328125 274.234375 79.363281 270.121094 81.386719 C 266.265625 83.40625 261.382812 84.671875 256.242188 84.671875 C 251.101562 84.671875 246.476562 83.660156 242.363281 81.636719 C 238.253906 79.617188 235.167969 76.835938 232.855469 73.042969 C 230.796875 69.253906 229.515625 64.957031 229.515625 59.898438 C 229.515625 55.097656 230.796875 50.800781 232.855469 47.007812 Z M 248.019531 69 C 250.074219 71.527344 252.902344 72.539062 256.242188 72.539062 C 259.585938 72.539062 262.410156 71.273438 264.46875 69 C 266.523438 66.722656 267.550781 63.4375 267.550781 59.898438 C 267.550781 56.109375 266.523438 53.074219 264.46875 50.800781 C 262.152344 48.273438 259.585938 47.007812 255.984375 47.007812 C 252.644531 47.007812 250.074219 48.273438 247.761719 50.546875 C 245.707031 53.074219 244.679688 56.109375 244.679688 59.898438 C 244.679688 63.4375 245.707031 66.472656 248.019531 69 Z M 248.019531 69 " />
		<path style=" stroke:none;fill-rule:nonzero;fill:rgb(2.352941%,6.27451%,14.117647%);fill-opacity:1;" d="M 306.875 0.246094 L 306.875 83.410156 L 291.96875 83.410156 L 291.96875 0.246094 Z M 306.875 0.246094 " />
		<path style=" stroke:none;fill-rule:nonzero;fill:rgb(2.352941%,6.27451%,14.117647%);fill-opacity:1;" d="M 368.042969 37.40625 L 337.714844 105.652344 L 323.324219 105.652344 L 334.632812 81.136719 L 313.042969 37.40625 L 330.007812 37.40625 L 342.34375 64.703125 L 354.679688 37.40625 Z M 368.042969 37.40625 " />
		<path style=" stroke:none;fill-rule:nonzero;fill:rgb(2.352941%,6.27451%,14.117647%);fill-opacity:1;" d="M 425.101562 37.402344 L 425.101562 83.40625 C 425.101562 87.703125 423.816406 91.75 421.246094 95.289062 C 418.675781 98.828125 415.335938 101.609375 410.964844 103.628906 C 406.597656 105.652344 401.96875 106.664062 396.828125 106.664062 C 392.972656 106.664062 389.632812 106.15625 386.804688 105.398438 C 383.980469 104.386719 381.664062 103.378906 379.867188 102.367188 C 377.8125 101.101562 375.753906 99.585938 373.441406 97.5625 L 382.179688 87.453125 C 384.234375 89.472656 386.550781 90.992188 388.605469 92.003906 C 390.660156 93.011719 393.488281 93.773438 396.574219 93.773438 C 400.429688 93.773438 403.511719 92.761719 406.082031 90.992188 C 408.652344 89.222656 409.9375 86.441406 409.9375 83.15625 L 409.9375 76.582031 C 408.394531 78.859375 406.339844 80.878906 403.257812 82.398438 C 400.171875 83.914062 396.574219 84.671875 392.460938 84.671875 C 388.347656 84.671875 384.234375 83.660156 380.636719 81.386719 C 377.039062 79.363281 374.210938 76.328125 371.898438 72.539062 C 369.84375 68.746094 368.558594 64.703125 368.558594 60.152344 C 368.558594 55.601562 369.585938 51.304688 371.898438 47.515625 C 374.210938 43.722656 377.039062 40.6875 380.894531 38.414062 C 384.492188 36.140625 388.347656 35.128906 392.460938 35.128906 C 396.316406 35.128906 399.65625 35.632812 402.742188 36.644531 C 405.824219 37.65625 408.136719 39.171875 409.679688 40.941406 L 411.222656 37.402344 Z M 409.9375 65.714844 L 409.9375 54.339844 C 408.910156 52.0625 407.367188 50.292969 405.054688 49.03125 C 402.742188 47.765625 400.171875 47.007812 397.089844 47.007812 C 393.488281 47.007812 390.402344 48.273438 387.835938 50.546875 C 385.265625 52.820312 383.980469 55.855469 383.980469 59.648438 C 383.980469 63.1875 385.265625 66.472656 387.835938 69 C 390.402344 71.527344 393.488281 72.792969 397.089844 72.792969 C 402.996094 72.539062 407.367188 70.261719 409.9375 65.714844 Z M 409.9375 65.714844 " />
		<path style=" stroke:none;fill-rule:nonzero;fill:rgb(2.352941%,6.27451%,14.117647%);fill-opacity:1;" d="M 437.4375 47.015625 C 439.753906 43.222656 442.835938 40.441406 446.949219 38.167969 C 451.058594 36.144531 455.6875 34.878906 460.824219 34.878906 C 465.964844 34.878906 470.59375 35.890625 474.703125 38.167969 C 478.558594 40.1875 481.644531 43.222656 483.957031 47.015625 C 486.015625 50.804688 487.296875 54.851562 487.296875 59.652344 C 487.296875 64.457031 486.269531 68.5 483.957031 72.292969 C 481.902344 76.082031 478.816406 79.117188 474.703125 81.136719 C 470.851562 83.160156 465.964844 84.425781 460.824219 84.425781 C 455.6875 84.425781 451.058594 83.414062 446.949219 81.390625 C 442.835938 79.371094 439.753906 76.589844 437.4375 72.796875 C 435.125 69.003906 434.097656 64.707031 434.097656 59.398438 C 434.097656 55.101562 435.125 50.804688 437.4375 47.015625 Z M 452.34375 69.003906 C 454.398438 71.53125 457.226562 72.542969 460.570312 72.542969 C 463.910156 72.542969 466.738281 71.28125 468.792969 69.003906 C 470.851562 66.730469 471.878906 63.445312 471.878906 59.90625 C 471.878906 56.113281 470.851562 53.082031 468.792969 50.804688 C 466.738281 48.53125 463.910156 47.265625 460.570312 47.265625 C 457.226562 47.265625 454.65625 48.53125 452.34375 50.804688 C 450.03125 53.082031 449.003906 56.367188 449.003906 59.90625 C 449.261719 63.445312 450.289062 66.476562 452.34375 69.003906 Z M 452.34375 69.003906 " />
		<g clip-path="url(#clip1)" clip-rule="nonzero">
			<path style=" stroke:none;fill-rule:nonzero;fill:rgb(2.352941%,6.27451%,14.117647%);fill-opacity:1;" d="M 539.988281 38.917969 C 543.070312 41.445312 544.355469 44.734375 544.613281 48.777344 L 544.613281 83.40625 L 529.449219 83.40625 L 529.449219 54.339844 C 529.191406 49.789062 526.878906 47.515625 522.511719 47.515625 C 519.171875 47.515625 516.34375 49.03125 514.285156 52.316406 C 512.230469 55.601562 511.203125 59.648438 511.203125 64.449219 L 511.203125 83.40625 L 496.292969 83.40625 L 496.292969 37.402344 L 509.914062 37.402344 L 510.945312 44.734375 C 512.742188 41.699219 515.054688 39.425781 518.140625 37.65625 C 521.226562 35.886719 524.824219 35.128906 528.9375 35.128906 C 533.304688 35.128906 537.160156 36.390625 539.988281 38.917969 Z M 539.988281 38.917969 " />
		</g>
		<g clip-path="url(#clip2)" clip-rule="nonzero">
			<path style=" stroke:none;fill-rule:nonzero;fill:rgb(50.980392%,27.843137%,89.803922%);fill-opacity:1;" d="M 105.117188 36.648438 C 102.546875 35.132812 99.207031 35.132812 96.378906 36.648438 L 76.332031 48.277344 L 62.710938 55.859375 L 42.664062 67.488281 C 40.09375 69.003906 36.753906 69.003906 33.925781 67.488281 L 17.992188 58.386719 C 15.421875 56.871094 13.621094 54.089844 13.621094 51.054688 L 13.621094 33.109375 C 13.621094 30.074219 15.164062 27.296875 17.992188 25.777344 L 33.667969 16.929688 C 36.238281 15.414062 39.582031 15.414062 42.40625 16.929688 L 58.085938 25.777344 C 60.65625 27.296875 62.453125 30.074219 62.453125 33.109375 L 62.453125 44.738281 L 76.078125 36.902344 L 76.078125 25.273438 C 76.078125 22.238281 74.535156 19.460938 71.707031 17.941406 L 42.664062 1.257812 C 40.09375 -0.257812 36.753906 -0.257812 33.925781 1.257812 L 4.371094 17.941406 C 1.542969 19.460938 0 22.238281 0 25.273438 L 0 58.890625 C 0 61.925781 1.542969 64.707031 4.371094 66.222656 L 33.925781 82.90625 C 36.496094 84.421875 39.835938 84.421875 42.664062 82.90625 L 62.710938 71.53125 L 76.332031 63.695312 L 96.378906 52.320312 C 98.949219 50.804688 102.292969 50.804688 105.117188 52.320312 L 120.796875 61.167969 C 123.367188 62.683594 125.164062 65.464844 125.164062 68.496094 L 125.164062 86.445312 C 125.164062 89.476562 123.625 92.257812 120.796875 93.773438 L 105.117188 102.875 C 102.546875 104.390625 99.207031 104.390625 96.378906 102.875 L 80.703125 94.027344 C 78.132812 92.511719 76.332031 89.730469 76.332031 86.695312 L 76.332031 75.070312 L 62.710938 82.90625 L 62.710938 94.53125 C 62.710938 97.566406 64.253906 100.347656 67.082031 101.863281 L 96.636719 118.546875 C 99.207031 120.0625 102.546875 120.0625 105.375 118.546875 L 134.933594 101.863281 C 137.503906 100.347656 139.300781 97.566406 139.300781 94.53125 L 139.300781 60.914062 C 139.300781 57.882812 137.757812 55.101562 134.933594 53.582031 Z M 105.117188 36.648438 " />
		</g>
	</g>
</svg>
