<svg height="512pt" viewBox="0 0 512.0005 512" width="512pt" xmlns="http://www.w3.org/2000/svg">
	<path d="m376.265625 467.085938c0 11.027343-8.9375 19.964843-19.960937 19.964843h-276.460938c-44.027344 0-79.84375-35.820312-79.84375-79.847656v-229.550781c0-16.839844 5.183594-32.949219 14.996094-46.589844 6.4375-8.949219 18.910156-10.980469 27.859375-4.546875 8.949219 6.4375 10.984375 18.914063 4.546875 27.863281-4.894532 6.804688-7.480469 14.851563-7.480469 23.273438v229.550781c0 22.015625 17.910156 39.921875 39.921875 39.921875h276.460938c11.023437 0 19.960937 8.9375 19.960937 19.960938zm-219.628906-222.273438c-10.875-1.878906-21.191407 5.410156-23.070313 16.273438-1.210937 7.007812-1.824218 14.195312-1.824218 21.363281 0 68.789062 55.964843 124.753906 124.757812 124.753906 8.183594 0 16.371094-.796875 24.335938-2.375 10.8125-2.140625 17.84375-12.644531 15.703124-23.457031-2.140624-10.816406-12.644531-17.847656-23.457031-15.703125-5.417969 1.070312-10.996093 1.613281-16.582031 1.613281-46.777344 0-84.835938-38.054688-84.835938-84.832031 0-4.894531.417969-9.792969 1.242188-14.566407 1.878906-10.863281-5.40625-21.191406-16.269531-23.070312zm349.519531 260.34375c-3.898438 3.898438-9.007812 5.847656-14.117188 5.847656-5.109374 0-10.21875-1.949218-14.117187-5.847656l-471.078125-471.078125c-7.796875-7.796875-7.796875-20.4375 0-28.230469 7.796875-7.796875 20.433594-7.796875 28.230469 0l87.363281 87.363282c2.707031-2.246094 4.816406-5.199219 6.039062-8.582032l6.910157-19.136718c8.539062-23.652344 31.175781-39.542969 56.324219-39.542969h127.519531c25.644531 0 48.425781 16.3125 56.691406 40.589843l6.039063 17.742188c2.753906 8.089844 10.347656 13.527344 18.894531 13.527344h30.300781c44.027344 0 79.84375 35.820312 79.84375 79.84375v129.746094c0 11.027343-8.933594 19.960937-19.960938 19.960937-11.023437 0-19.960937-8.933594-19.960937-19.960937v-129.746094c0-22.011719-17.90625-39.921875-39.921875-39.921875h-30.300781c-25.640625 0-48.425781-16.308594-56.6875-40.585938l-6.042969-17.742187c-2.753906-8.09375-10.347656-13.53125-18.894531-13.53125h-127.519531c-8.382813 0-15.929688 5.296875-18.777344 13.179687l-6.910156 19.136719c-3.234376 8.960938-8.546876 16.90625-15.328126 23.28125l49.597657 49.597656c17.355469-8.765625 36.566406-13.375 56.207031-13.375 68.789062 0 124.753906 55.964844 124.753906 124.757813 0 19.691406-4.59375 38.863281-13.367187 56.210937l94.027343 94.027344c5.863282-7.042969 9.164063-15.957031 9.164063-25.484375 0-11.023437 8.9375-19.960937 19.960937-19.960937 11.027344 0 19.960938 8.9375 19.960938 19.960937 0 20.351563-7.511719 39.324219-20.769531 53.800781l15.925781 15.921875c7.792969 7.796875 7.792969 20.4375 0 28.230469zm-275.34375-303.570312 106.550781 106.550781c2.613281-8.242188 3.96875-16.886719 3.96875-25.6875 0-46.777344-38.054687-84.835938-84.832031-84.835938-8.785156 0-17.4375 1.355469-25.6875 3.972657zm0 0" />
</svg>
