<?xml version="1.0" encoding="UTF-8"?>
<svg xmlns="http://www.w3.org/2000/svg" xmlns:xlink="http://www.w3.org/1999/xlink" width="375pt" height="374.999991pt" viewBox="0 0 375 374.999991" version="1.2">
<defs>
<clipPath id="clip1">
  <path d="M 29.378906 21.253906 L 345.878906 21.253906 L 345.878906 337.753906 L 29.378906 337.753906 Z M 29.378906 21.253906 "/>
</clipPath>
</defs>
<g id="surface1">
<g clip-path="url(#clip1)" clip-rule="nonzero">
<path style=" stroke:none;fill-rule:nonzero;fill:rgb(10.5896%,61.569214%,94.119263%);fill-opacity:1;" d="M 346.136719 179.632812 C 346.136719 182.226562 346.070312 184.816406 345.945312 187.40625 C 345.816406 189.996094 345.628906 192.578125 345.371094 195.15625 C 345.117188 197.738281 344.800781 200.308594 344.421875 202.875 C 344.042969 205.4375 343.597656 207.988281 343.09375 210.53125 C 342.585938 213.074219 342.019531 215.601562 341.390625 218.117188 C 340.757812 220.632812 340.066406 223.128906 339.316406 225.609375 C 338.5625 228.089844 337.75 230.550781 336.878906 232.992188 C 336.003906 235.429688 335.070312 237.847656 334.078125 240.242188 C 333.085938 242.636719 332.039062 245.007812 330.929688 247.351562 C 329.820312 249.691406 328.65625 252.007812 327.433594 254.292969 C 326.210938 256.578125 324.933594 258.832031 323.601562 261.058594 C 322.269531 263.28125 320.882812 265.46875 319.445312 267.625 C 318.003906 269.78125 316.511719 271.898438 314.96875 273.980469 C 313.421875 276.0625 311.828125 278.105469 310.183594 280.109375 C 308.539062 282.113281 306.847656 284.074219 305.109375 285.996094 C 303.367188 287.914062 301.582031 289.792969 299.746094 291.625 C 297.914062 293.457031 296.039062 295.246094 294.117188 296.984375 C 292.195312 298.726562 290.234375 300.417969 288.230469 302.0625 C 286.226562 303.707031 284.183594 305.300781 282.101562 306.84375 C 280.019531 308.390625 277.902344 309.882812 275.746094 311.320312 C 273.59375 312.761719 271.402344 314.148438 269.179688 315.480469 C 266.957031 316.8125 264.703125 318.089844 262.414062 319.3125 C 260.128906 320.535156 257.816406 321.699219 255.472656 322.808594 C 253.128906 323.914062 250.761719 324.964844 248.367188 325.957031 C 245.972656 326.949219 243.554688 327.882812 241.113281 328.753906 C 238.671875 329.628906 236.210938 330.441406 233.730469 331.191406 C 231.25 331.945312 228.753906 332.636719 226.238281 333.265625 C 223.726562 333.894531 221.195312 334.464844 218.65625 334.96875 C 216.113281 335.476562 213.558594 335.917969 210.996094 336.300781 C 208.429688 336.679688 205.859375 336.996094 203.28125 337.25 C 200.699219 337.503906 198.117188 337.695312 195.527344 337.824219 C 192.9375 337.949219 190.347656 338.011719 187.757812 338.011719 C 185.164062 338.011719 182.574219 337.949219 179.984375 337.824219 C 177.394531 337.695312 174.8125 337.503906 172.234375 337.25 C 169.652344 336.996094 167.082031 336.679688 164.515625 336.300781 C 161.953125 335.917969 159.402344 335.476562 156.859375 334.96875 C 154.316406 334.464844 151.789062 333.894531 149.273438 333.265625 C 146.757812 332.636719 144.261719 331.945312 141.78125 331.191406 C 139.300781 330.441406 136.839844 329.628906 134.398438 328.753906 C 131.960938 327.882812 129.542969 326.949219 127.148438 325.957031 C 124.753906 324.964844 122.382812 323.914062 120.039062 322.808594 C 117.699219 321.699219 115.382812 320.535156 113.097656 319.3125 C 110.8125 318.089844 108.558594 316.8125 106.332031 315.480469 C 104.109375 314.148438 101.921875 312.761719 99.765625 311.320312 C 97.609375 309.882812 95.492188 308.390625 93.410156 306.84375 C 91.328125 305.300781 89.285156 303.707031 87.28125 302.0625 C 85.277344 300.417969 83.316406 298.726562 81.394531 296.984375 C 79.476562 295.246094 77.597656 293.457031 75.765625 291.625 C 73.933594 289.792969 72.144531 287.914062 70.40625 285.996094 C 68.664062 284.074219 66.972656 282.113281 65.328125 280.109375 C 63.683594 278.105469 62.089844 276.0625 60.546875 273.980469 C 59 271.898438 57.507812 269.78125 56.070312 267.625 C 54.628906 265.46875 53.242188 263.28125 51.910156 261.058594 C 50.578125 258.832031 49.300781 256.578125 48.078125 254.292969 C 46.855469 252.007812 45.691406 249.691406 44.582031 247.351562 C 43.476562 245.007812 42.425781 242.636719 41.433594 240.242188 C 40.441406 237.847656 39.507812 235.429688 38.636719 232.992188 C 37.761719 230.550781 36.949219 228.089844 36.199219 225.609375 C 35.445312 223.128906 34.753906 220.632812 34.125 218.117188 C 33.496094 215.601562 32.925781 213.074219 32.421875 210.53125 C 31.914062 207.988281 31.472656 205.4375 31.089844 202.875 C 30.710938 200.308594 30.394531 197.738281 30.140625 195.15625 C 29.886719 192.578125 29.695312 189.996094 29.566406 187.40625 C 29.441406 184.816406 29.378906 182.226562 29.378906 179.632812 C 29.378906 177.042969 29.441406 174.453125 29.566406 171.863281 C 29.695312 169.273438 29.886719 166.691406 30.140625 164.109375 C 30.394531 161.53125 30.710938 158.957031 31.089844 156.394531 C 31.472656 153.832031 31.914062 151.277344 32.421875 148.734375 C 32.925781 146.195312 33.496094 143.664062 34.125 141.152344 C 34.753906 138.636719 35.445312 136.140625 36.199219 133.660156 C 36.949219 131.179688 37.761719 128.71875 38.636719 126.277344 C 39.507812 123.835938 40.441406 121.417969 41.433594 119.023438 C 42.425781 116.628906 43.476562 114.261719 44.582031 111.917969 C 45.691406 109.574219 46.855469 107.261719 48.078125 104.976562 C 49.300781 102.6875 50.578125 100.433594 51.910156 98.210938 C 53.242188 95.988281 54.628906 93.796875 56.070312 91.644531 C 57.507812 89.488281 59 87.371094 60.546875 85.289062 C 62.089844 83.207031 63.683594 81.164062 65.328125 79.160156 C 66.972656 77.15625 68.664062 75.195312 70.40625 73.273438 C 72.144531 71.351562 73.933594 69.476562 75.765625 67.644531 C 77.597656 65.808594 79.476562 64.023438 81.394531 62.28125 C 83.316406 60.542969 85.277344 58.851562 87.28125 57.207031 C 89.285156 55.5625 91.328125 53.96875 93.410156 52.421875 C 95.492188 50.878906 97.609375 49.386719 99.765625 47.945312 C 101.921875 46.507812 104.109375 45.121094 106.332031 43.789062 C 108.558594 42.457031 110.8125 41.179688 113.097656 39.957031 C 115.382812 38.734375 117.699219 37.570312 120.039062 36.460938 C 122.382812 35.351562 124.753906 34.304688 127.148438 33.3125 C 129.542969 32.320312 131.960938 31.386719 134.398438 30.511719 C 136.839844 29.640625 139.300781 28.828125 141.78125 28.074219 C 144.261719 27.324219 146.757812 26.632812 149.273438 26 C 151.789062 25.371094 154.316406 24.804688 156.859375 24.296875 C 159.402344 23.792969 161.953125 23.347656 164.515625 22.96875 C 167.082031 22.589844 169.652344 22.273438 172.234375 22.019531 C 174.8125 21.761719 177.394531 21.574219 179.984375 21.445312 C 182.574219 21.320312 185.164062 21.253906 187.757812 21.253906 C 190.347656 21.253906 192.9375 21.320312 195.527344 21.445312 C 198.117188 21.574219 200.699219 21.761719 203.28125 22.019531 C 205.859375 22.273438 208.429688 22.589844 210.996094 22.96875 C 213.558594 23.347656 216.113281 23.792969 218.65625 24.296875 C 221.195312 24.804688 223.726562 25.371094 226.238281 26 C 228.753906 26.632812 231.25 27.324219 233.730469 28.074219 C 236.210938 28.828125 238.671875 29.640625 241.113281 30.511719 C 243.554688 31.386719 245.972656 32.320312 248.367188 33.3125 C 250.761719 34.304688 253.128906 35.351562 255.472656 36.460938 C 257.816406 37.570312 260.128906 38.734375 262.414062 39.957031 C 264.703125 41.179688 266.957031 42.457031 269.179688 43.789062 C 271.402344 45.121094 273.59375 46.507812 275.746094 47.945312 C 277.902344 49.386719 280.019531 50.878906 282.101562 52.421875 C 284.183594 53.96875 286.226562 55.5625 288.230469 57.207031 C 290.234375 58.851562 292.195312 60.542969 294.117188 62.28125 C 296.039062 64.023438 297.914062 65.808594 299.746094 67.644531 C 301.582031 69.476562 303.367188 71.351562 305.109375 73.273438 C 306.847656 75.195312 308.539062 77.15625 310.183594 79.160156 C 311.828125 81.164062 313.421875 83.207031 314.96875 85.289062 C 316.511719 87.371094 318.003906 89.488281 319.445312 91.644531 C 320.882812 93.796875 322.269531 95.988281 323.601562 98.210938 C 324.933594 100.433594 326.210938 102.6875 327.433594 104.976562 C 328.65625 107.261719 329.820312 109.574219 330.929688 111.917969 C 332.039062 114.261719 333.085938 116.628906 334.078125 119.023438 C 335.070312 121.417969 336.003906 123.835938 336.878906 126.277344 C 337.75 128.71875 338.5625 131.179688 339.316406 133.660156 C 340.066406 136.140625 340.757812 138.636719 341.390625 141.152344 C 342.019531 143.664062 342.585938 146.195312 343.09375 148.734375 C 343.597656 151.277344 344.039062 153.832031 344.421875 156.394531 C 344.800781 158.957031 345.117188 161.53125 345.371094 164.109375 C 345.628906 166.691406 345.816406 169.273438 345.945312 171.863281 C 346.070312 174.453125 346.136719 177.042969 346.136719 179.632812 Z M 346.136719 179.632812 "/>
</g>
<path style=" stroke:none;fill-rule:nonzero;fill:rgb(100%,100%,100%);fill-opacity:1;" d="M 158.773438 263.179688 C 229.015625 263.179688 267.421875 204.976562 267.421875 154.53125 C 267.421875 152.867188 267.421875 151.203125 267.34375 149.621094 C 274.785156 144.238281 281.28125 137.503906 286.425781 129.824219 C 279.617188 132.832031 272.25 134.890625 264.492188 135.84375 C 272.410156 131.089844 278.429688 123.648438 281.28125 114.699219 C 273.914062 119.054688 265.757812 122.222656 257.046875 123.964844 C 250.078125 116.519531 240.179688 111.925781 229.171875 111.925781 C 208.109375 111.925781 191.003906 129.03125 191.003906 150.097656 C 191.003906 153.105469 191.320312 156.035156 192.03125 158.808594 C 160.277344 157.222656 132.164062 142.019531 113.320312 118.894531 C 110.070312 124.519531 108.171875 131.089844 108.171875 138.058594 C 108.171875 151.285156 114.902344 163.003906 125.195312 169.816406 C 118.941406 169.65625 113.082031 167.914062 107.933594 165.0625 C 107.933594 165.222656 107.933594 165.378906 107.933594 165.539062 C 107.933594 184.070312 121.078125 199.429688 138.578125 202.996094 C 135.414062 203.867188 132.007812 204.339844 128.523438 204.339844 C 126.066406 204.339844 123.691406 204.105469 121.316406 203.628906 C 126.148438 218.832031 140.242188 229.839844 156.953125 230.15625 C 143.886719 240.371094 127.414062 246.46875 109.515625 246.46875 C 106.429688 246.46875 103.417969 246.3125 100.410156 245.914062 C 117.121094 256.84375 137.234375 263.179688 158.773438 263.179688 "/>
</g>
</svg>
