<svg width="273" height="60" viewBox="0 0 273 60" fill="none" xmlns="http://www.w3.org/2000/svg">
<g clip-path="url(#clip0)">
<path d="M106.532 19.0835C108.203 20.0946 109.617 21.4848 110.516 23.3806C111.544 25.2764 112.058 27.5514 112.058 30.0791C112.058 32.6069 111.544 34.7555 110.388 36.6513C109.36 38.5471 107.817 39.9373 105.89 40.822C103.962 41.8331 101.649 42.3387 99.2075 42.3387C97.7939 42.3387 96.5089 42.0859 95.2238 41.5804C93.9387 41.2012 92.7822 40.4429 91.8826 39.5582V52.7024H84.4292V18.0724H90.8546L91.4971 20.8529C94.3242 18.5779 97.4084 17.4404 100.621 17.4404C102.806 17.4404 104.862 17.946 106.532 19.0835ZM102.42 34.7555C103.705 33.618 104.348 32.1013 104.348 30.2055C104.348 28.3097 103.705 26.7931 102.549 25.5292C101.392 24.2653 99.85 23.7598 98.1795 23.7598C96.7659 23.7598 95.4808 24.0126 94.4527 24.6445C93.4247 25.15 92.6536 26.0347 92.0111 27.1722V32.8596C92.3966 33.9971 93.1677 34.8818 94.0672 35.5138C95.0953 36.1457 96.2518 36.5249 97.6654 36.5249C99.593 36.5249 101.135 35.8929 102.42 34.7555Z" fill="#061024"/>
<path d="M116.427 23.5042C117.584 21.7347 119.126 20.2181 121.182 19.207C123.238 18.1959 125.551 17.564 128.122 17.564C130.692 17.564 133.005 18.0695 135.061 19.207C136.989 20.2181 138.531 21.7347 139.687 23.6305C140.844 25.5263 141.358 27.5485 141.358 29.9499C141.358 32.3512 140.844 34.3734 139.687 36.2692C138.531 38.165 137.117 39.6817 135.061 40.6928C133.133 41.7039 130.692 42.3358 128.122 42.3358C125.551 42.3358 123.238 41.8303 121.182 40.8192C119.126 39.8081 117.584 38.4178 116.427 36.522C115.399 34.6262 114.757 32.4776 114.757 29.9499C114.757 27.5485 115.399 25.4 116.427 23.5042ZM124.009 34.4998C125.037 35.7637 126.451 36.2692 128.122 36.2692C129.792 36.2692 131.206 35.6373 132.234 34.4998C133.262 33.3623 133.776 31.7193 133.776 29.9499C133.776 28.0541 133.262 26.5374 132.234 25.4C131.077 24.1361 129.792 23.5042 127.993 23.5042C126.322 23.5042 125.037 24.1361 123.881 25.2736C122.853 26.5374 122.339 28.0541 122.339 29.9499C122.339 31.7193 122.853 33.236 124.009 34.4998Z" fill="#061024"/>
<path d="M153.437 0.124023V41.7053H145.984V0.124023H153.437Z" fill="#061024"/>
<path d="M184.022 18.7026L168.858 52.8271H161.662L167.316 40.5676L156.521 18.7026H165.003L171.171 32.3524L177.34 18.7026H184.022Z" fill="#061024"/>
<path d="M212.551 18.7014V41.7039C212.551 43.8525 211.908 45.8747 210.623 47.6441C209.338 49.4135 207.668 50.8038 205.483 51.8148C203.298 52.8259 200.985 53.3315 198.415 53.3315C196.487 53.3315 194.817 53.0787 193.403 52.6996C191.99 52.194 190.833 51.6885 189.934 51.1829C188.906 50.551 187.877 49.7927 186.721 48.7816L191.09 43.7261C192.118 44.7372 193.275 45.4955 194.303 46.001C195.331 46.5066 196.744 46.8858 198.287 46.8858C200.214 46.8858 201.756 46.3802 203.041 45.4955C204.326 44.6108 204.969 43.2205 204.969 41.5775V38.2914C204.198 39.4289 203.17 40.44 201.628 41.1983C200.086 41.9567 198.287 42.3358 196.23 42.3358C194.174 42.3358 192.118 41.8303 190.319 40.6928C188.52 39.6817 187.106 38.165 185.95 36.2692C184.922 34.3734 184.279 32.3512 184.279 30.0763C184.279 27.8013 184.793 25.6527 185.95 23.7569C187.106 21.8611 188.52 20.3445 190.448 19.207C192.247 18.0695 194.174 17.564 196.23 17.564C198.158 17.564 199.829 17.8167 201.371 18.3223C202.913 18.8278 204.069 19.5862 204.84 20.4709L205.611 18.7014H212.551ZM204.969 32.8568V27.1694C204.455 26.0319 203.684 25.1472 202.527 24.5153C201.371 23.8833 200.086 23.5042 198.544 23.5042C196.744 23.5042 195.202 24.1361 193.917 25.2736C192.632 26.4111 191.99 27.9277 191.99 29.8235C191.99 31.5929 192.632 33.236 193.917 34.4998C195.202 35.7637 196.744 36.3956 198.544 36.3956C201.499 36.2692 203.684 35.1318 204.969 32.8568Z" fill="#061024"/>
<path d="M218.719 23.507C219.876 21.6112 221.418 20.2209 223.474 19.0835C225.53 18.0724 227.843 17.4404 230.413 17.4404C232.983 17.4404 235.296 17.946 237.352 19.0835C239.28 20.0946 240.822 21.6112 241.979 23.507C243.007 25.4028 243.649 27.425 243.649 29.8264C243.649 32.2277 243.135 34.2499 241.979 36.1457C240.951 38.0415 239.409 39.5582 237.352 40.5693C235.425 41.5804 232.983 42.2123 230.413 42.2123C227.843 42.2123 225.53 41.7067 223.474 40.6957C221.418 39.6846 219.876 38.2943 218.719 36.3985C217.562 34.5027 217.048 32.3541 217.048 29.7C217.048 27.5514 217.562 25.4028 218.719 23.507ZM226.172 34.5027C227.2 35.7666 228.614 36.2721 230.285 36.2721C231.955 36.2721 233.369 35.6402 234.397 34.5027C235.425 33.3652 235.939 31.7222 235.939 29.9527C235.939 28.0569 235.425 26.5403 234.397 25.4028C233.369 24.2653 231.955 23.6334 230.285 23.6334C228.614 23.6334 227.329 24.2653 226.172 25.4028C225.016 26.5403 224.502 28.1833 224.502 29.9527C224.63 31.7222 225.144 33.2388 226.172 34.5027Z" fill="#061024"/>
<path d="M269.994 19.4598C271.536 20.7236 272.178 22.3667 272.307 24.3889V41.7039H264.725V27.1694C264.596 24.8944 263.44 23.7569 261.255 23.7569C259.585 23.7569 258.171 24.5153 257.143 26.1583C256.115 27.8013 255.601 29.8235 255.601 32.2249V41.7039H248.147V18.7014H254.958L255.472 22.3667C256.372 20.85 257.528 19.7125 259.071 18.8278C260.613 17.9431 262.412 17.564 264.468 17.564C266.653 17.564 268.58 18.1959 269.994 19.4598Z" fill="#061024"/>
<path d="M52.5594 18.324C51.2743 17.5656 49.6037 17.5656 48.1902 18.324L38.1666 24.1378L31.3557 27.9294L21.3322 33.7432C20.0471 34.5015 18.3765 34.5015 16.9629 33.7432L8.9955 29.1932C7.71043 28.4349 6.81088 27.0447 6.81088 25.528V16.5545C6.81088 15.0379 7.58192 13.6476 8.9955 12.8893L16.8344 8.46577C18.1195 7.70745 19.7901 7.70745 21.2037 8.46577L29.0426 12.8893C30.3277 13.6476 31.2272 15.0379 31.2272 16.5545V22.3683L38.0381 18.4504V12.6365C38.0381 11.1199 37.2671 9.72964 35.8535 8.97132L21.3322 0.629777C20.0471 -0.128545 18.3765 -0.128545 16.9629 0.629777L2.18462 8.97132C0.771043 9.72964 0 11.1199 0 12.6365V29.446C0 30.9627 0.771043 32.3529 2.18462 33.1112L16.9629 41.4528C18.248 42.2111 19.9186 42.2111 21.3322 41.4528L31.3557 35.7654L38.1666 31.8474L48.1902 26.16C49.4752 25.4016 51.1458 25.4016 52.5594 26.16L60.3983 30.5835C61.6834 31.3418 62.583 32.7321 62.583 34.2487V43.2222C62.583 44.7389 61.8119 46.1291 60.3983 46.8874L52.5594 51.4374C51.2743 52.1957 49.6037 52.1957 48.1902 51.4374L40.3512 47.0138C39.0662 46.2555 38.1666 44.8652 38.1666 43.3486V37.5348L31.3557 41.4528V47.2666C31.3557 48.7832 32.1268 50.1735 33.5404 50.9318L48.3187 59.2734C49.6037 60.0317 51.2743 60.0317 52.6879 59.2734L67.4662 50.9318C68.7513 50.1735 69.6509 48.7832 69.6509 47.2666V30.4571C69.6509 28.9405 68.8798 27.5502 67.4662 26.7919L52.5594 18.324Z" fill="#8247E5"/>
</g>
<defs>
<clipPath id="clip0">
<rect width="272.307" height="59.9074" fill="white"/>
</clipPath>
</defs>
</svg>
